<svg width="490" height="508" viewBox="0 0 490 508" fill="none" xmlns="http://www.w3.org/2000/svg">
<g clip-path="url(#clip0_7_2147)">
<path d="M435.334 388.125L435.324 388.354L446.828 510H362.882L352.001 435.289L347.212 508.084L261.005 507.127L270.162 411.553L277.95 367.253V367.244L279.118 360.577H433.045L433.246 362.991L435.334 388.125Z" fill="#2F2E41"/>
<path d="M213.488 458.643C222.379 460.262 231.649 450.25 234.195 436.279C235.309 430.164 234.949 424.304 233.447 419.511L234.811 411.458L257.687 303.117C257.687 303.117 299.814 218.851 299.813 204.222C299.812 189.593 287.627 182.419 287.627 182.419L271.138 182.573L219.431 308.861L210.118 402.183L208.612 414.987C205.516 418.941 203.113 424.298 201.999 430.414C199.454 444.385 204.598 457.023 213.488 458.643Z" fill="#FFB6B6"/>
<path d="M381.215 130.217L365.89 94.7767L316.082 103.397L312.729 145.093L381.215 130.217Z" fill="#FFB6B6"/>
<path opacity="0.1" d="M381.215 130.217L365.89 94.7767L316.082 103.397L312.729 145.093L381.215 130.217Z" fill="black"/>
<path d="M489.453 203.97C489.453 203.97 454.012 137.879 447.307 131.174C444.322 128.19 439.63 128.148 435.341 129.018L386.005 112.018L369.283 102.622L368.181 120.497L313.281 130.351C313.586 119.45 315.124 115.304 315.124 115.304L295.009 138.837L255.737 157.994L255.759 158.166C252.877 159.172 250.145 160.894 248.075 163.741C240.412 174.277 219.339 302.628 219.339 302.628L264.358 312.206L270.485 273.759L274.894 308.375L278.247 373.029C278.247 373.029 339.549 425.71 369.243 406.553C398.936 387.397 435.334 388.354 435.334 388.354L436.242 358.386C436.889 357.352 437.25 356.746 437.25 356.746L436.292 250.441V222.154C443.589 232.32 452.395 241.062 462.633 245.157C496.158 258.567 489.453 203.97 489.453 203.97Z" fill="#E6E6E6"/>
<path d="M335.78 109.633C361.087 109.633 381.602 89.1178 381.602 63.8112C381.602 38.5046 361.087 17.9896 335.78 17.9896C310.473 17.9896 289.958 38.5046 289.958 63.8112C289.958 89.1178 310.473 109.633 335.78 109.633Z" fill="#FFB6B6"/>
<path d="M368.652 76.7608C368.652 76.7608 372.636 62.8151 381.602 63.8112C390.567 64.8073 392.559 56.8383 390.567 52.8538C388.575 48.8694 384.59 28.9469 384.59 28.9469C384.59 28.9469 386.582 15.0012 374.629 13.009C362.675 11.0168 358.691 9.02451 356.698 5.04002C354.706 1.05553 324.822 -2.92895 314.861 3.04778C304.9 9.02451 296.93 20.4917 289.958 23.7232C282.985 26.9547 277.008 32.9314 280.992 42.8926C284.977 52.8538 290.756 72.3358 290.756 72.3358C290.756 72.3358 300.915 68.7918 302.907 74.7685C304.9 80.7452 296.93 72.7763 306.892 56.8383C316.853 40.9004 316.853 24.9624 332.791 30.9392C348.729 36.9159 366.66 34.9237 364.667 46.8771C362.675 58.8306 368.652 76.7608 368.652 76.7608Z" fill="#2F2E41"/>
<path d="M365.85 440.016H17.8478C8.00634 440.016 0 432.009 0 422.169V237.312C0 227.472 8.00634 219.465 17.8478 219.465H365.85C375.692 219.465 383.698 227.472 383.698 237.312V422.169C383.698 432.009 375.692 440.016 365.85 440.016Z" fill="white"/>
<path d="M365.85 440.016H17.8478C8.00634 440.016 0 432.009 0 422.169V237.312C0 227.472 8.00634 219.465 17.8478 219.465H365.85C375.692 219.465 383.698 227.472 383.698 237.312V422.169C383.698 432.009 375.692 440.016 365.85 440.016ZM17.8478 222.445C9.6501 222.445 2.98045 229.115 2.98045 237.312V422.169C2.98045 430.366 9.6501 437.036 17.8478 437.036H365.85C374.048 437.036 380.717 430.366 380.717 422.169V237.312C380.717 229.115 374.048 222.445 365.85 222.445H17.8478Z" fill="#3F3D56"/>
<path d="M338.991 241.818C341.46 241.818 343.462 239.816 343.462 237.347C343.462 234.878 341.46 232.877 338.991 232.877C336.522 232.877 334.52 234.878 334.52 237.347C334.52 239.816 336.522 241.818 338.991 241.818Z" fill="#3F3D56"/>
<path d="M350.913 241.818C353.382 241.818 355.384 239.816 355.384 237.347C355.384 234.878 353.382 232.877 350.913 232.877C348.444 232.877 346.442 234.878 346.442 237.347C346.442 239.816 348.444 241.818 350.913 241.818Z" fill="#3F3D56"/>
<path d="M362.835 241.818C365.304 241.818 367.305 239.816 367.305 237.347C367.305 234.878 365.304 232.877 362.835 232.877C360.366 232.877 358.364 234.878 358.364 237.347C358.364 239.816 360.366 241.818 362.835 241.818Z" fill="#3F3D56"/>
<path d="M25.334 309.623C24.1013 309.623 23.0986 310.625 23.0986 311.858C23.0986 312.459 23.3308 313.015 23.7521 313.425C24.177 313.86 24.7337 314.093 25.334 314.093H359.854C361.087 314.093 362.09 313.091 362.09 311.858C362.09 311.257 361.857 310.701 361.436 310.291C361.011 309.855 360.455 309.623 359.854 309.623H25.334Z" fill="#E6E6E6"/>
<path d="M318.128 308.878V314.838H25.334C24.5144 314.838 23.7693 314.511 23.2328 313.959C22.6813 313.423 22.3535 312.678 22.3535 311.858C22.3535 310.219 23.6948 308.878 25.334 308.878H318.128Z" fill="#FF7700"/>
<path d="M356.129 297.701H326.324C323.037 297.701 320.363 295.028 320.363 291.74C320.363 288.453 323.037 285.779 326.324 285.779H356.129C359.416 285.779 362.09 288.453 362.09 291.74C362.09 295.028 359.416 297.701 356.129 297.701Z" fill="#E6E6E6"/>
<path d="M160.909 266.406H27.5693C24.2825 266.406 21.6084 263.733 21.6084 260.446C21.6084 257.158 24.2825 254.485 27.5693 254.485H160.909C164.196 254.485 166.87 257.158 166.87 260.446C166.87 263.733 164.196 266.406 160.909 266.406Z" fill="#E6E6E6"/>
<path d="M25.334 376.682C24.1013 376.682 23.0986 377.685 23.0986 378.918C23.0986 379.519 23.3308 380.075 23.7521 380.485C24.177 380.92 24.7337 381.153 25.334 381.153H359.854C361.087 381.153 362.09 380.15 362.09 378.918C362.09 378.317 361.857 377.761 361.436 377.35C361.011 376.915 360.455 376.682 359.854 376.682H25.334Z" fill="#E6E6E6"/>
<path d="M203.38 375.937V381.898H25.334C24.5144 381.898 23.7693 381.57 23.2328 381.019C22.6813 380.482 22.3535 379.737 22.3535 378.918C22.3535 377.278 23.6948 375.937 25.334 375.937H203.38Z" fill="#FF7700"/>
<path d="M356.129 364.761H326.324C323.037 364.761 320.363 362.087 320.363 358.8C320.363 355.512 323.037 352.839 326.324 352.839H356.129C359.416 352.839 362.09 355.512 362.09 358.8C362.09 362.087 359.416 364.761 356.129 364.761Z" fill="#E6E6E6"/>
<path d="M408.306 113.16C434.082 113.16 454.978 92.7042 454.978 67.471C454.978 42.2379 434.082 21.7823 408.306 21.7823C382.529 21.7823 361.633 42.2379 361.633 67.471C361.633 92.7042 382.529 113.16 408.306 113.16Z" fill="#FF7700"/>
<path d="M424.147 44.4254C417.933 55.7395 411.719 67.0538 405.506 78.3679C401.546 71.3709 397.607 64.3616 393.637 57.3701C392.266 54.9555 388.537 57.1273 389.912 59.5479C394.513 67.6526 399.068 75.7843 403.67 83.8891C404.457 85.2748 406.617 85.307 407.396 83.8891C414.221 71.4604 421.047 59.0318 427.873 46.6032C429.21 44.1678 425.485 41.9881 424.147 44.4254Z" fill="white"/>
<path d="M472.735 187.901L426.234 165.657C426.234 165.657 424.367 150.768 415.646 145.458C414.164 141.921 412.458 138.036 410.909 134.957C407.077 127.343 412.824 112.976 408.035 112.976C403.246 112.976 396.166 128.086 396.541 132.132C396.829 135.239 399.396 140.662 399.926 145.409C394.086 147.611 389.375 151.387 386.277 154.393C383.597 156.994 382.601 160.875 383.648 164.46C386.684 174.85 394.272 196.308 405.162 196.308C419.529 196.308 423.361 193.434 423.361 193.434C423.361 193.434 453.054 230.79 475.085 233.663C497.115 236.537 472.735 187.901 472.735 187.901Z" fill="#FFB6B6"/>
</g>
<defs>
<clipPath id="clip0_7_2147">
<rect width="490" height="510" fill="white"/>
</clipPath>
</defs>
</svg>
