<svg width="255" height="31" fill="none" xmlns="http://www.w3.org/2000/svg"><path d="M15.72 30.48c-2.16 0-4.173-.347-6.04-1.04-1.84-.72-3.44-1.733-4.8-3.04a14.274 14.274 0 01-3.2-4.6C.933 20.04.56 18.107.56 16c0-2.107.373-4.04 1.12-5.8a14.273 14.273 0 013.2-4.6 14.36 14.36 0 014.84-3c1.84-.72 3.853-1.08 6.04-1.08 2.427 0 4.613.427 6.56 1.28a12.61 12.61 0 014.96 3.68l-4.16 3.84c-.96-1.093-2.027-1.907-3.2-2.44-1.173-.56-2.453-.84-3.84-.84-1.307 0-2.507.213-3.6.64a8.161 8.161 0 00-2.84 1.84c-.8.8-1.427 1.747-1.88 2.84-.427 1.093-.64 2.307-.64 3.64 0 1.333.213 2.547.64 3.64a8.658 8.658 0 001.88 2.84c.8.8 1.747 1.413 2.84 1.84 1.093.427 2.293.64 3.6.64 1.387 0 2.667-.267 3.84-.8 1.173-.56 2.24-1.4 3.2-2.52l4.16 3.84c-1.333 1.627-2.987 2.867-4.96 3.72-1.947.853-4.147 1.28-6.6 1.28zm24.994-.16c-2.294 0-4.334-.48-6.12-1.44-1.76-.96-3.16-2.267-4.2-3.92-1.014-1.68-1.52-3.587-1.52-5.72 0-2.16.506-4.067 1.52-5.72a10.802 10.802 0 014.2-3.92c1.786-.96 3.826-1.44 6.12-1.44 2.266 0 4.293.48 6.08 1.44 1.786.933 3.186 2.227 4.2 3.88 1.013 1.653 1.52 3.573 1.52 5.76 0 2.133-.507 4.04-1.52 5.72-1.014 1.653-2.414 2.96-4.2 3.92-1.787.96-3.814 1.44-6.08 1.44zm0-5.12c1.04 0 1.973-.24 2.8-.72.826-.48 1.48-1.16 1.96-2.04.48-.907.72-1.973.72-3.2 0-1.253-.24-2.32-.72-3.2-.48-.88-1.134-1.56-1.96-2.04-.827-.48-1.76-.72-2.8-.72-1.04 0-1.974.24-2.8.72-.827.48-1.494 1.16-2 2.04-.48.88-.72 1.947-.72 3.2 0 1.227.24 2.293.72 3.2.506.88 1.173 1.56 2 2.04.826.48 1.76.72 2.8.72zm25.05 5.12c-1.786 0-3.386-.347-4.8-1.04-1.386-.693-2.466-1.747-3.24-3.16-.773-1.44-1.16-3.267-1.16-5.48V8.48h6.24v11.24c0 1.787.374 3.107 1.12 3.96.774.827 1.854 1.24 3.24 1.24.96 0 1.814-.2 2.56-.6.747-.427 1.334-1.067 1.76-1.92.427-.88.64-1.973.64-3.28V8.48h6.24V30h-5.92v-5.92l1.08 1.72c-.72 1.493-1.786 2.627-3.2 3.4-1.386.747-2.906 1.12-4.56 1.12zM84.147 30V8.48h5.96v6.08l-.84-1.76c.64-1.52 1.666-2.667 3.08-3.44 1.413-.8 3.133-1.2 5.16-1.2v5.76a7.292 7.292 0 00-.72-.04 5.482 5.482 0 00-.68-.04c-1.707 0-3.094.493-4.16 1.48-1.04.96-1.56 2.467-1.56 4.52V30h-6.24zm24.466.32a21.84 21.84 0 01-5.32-.64c-1.68-.453-3.013-1.013-4-1.68l2.08-4.48c.987.613 2.147 1.12 3.48 1.52 1.36.373 2.694.56 4 .56 1.44 0 2.454-.173 3.04-.52.614-.347.92-.827.92-1.44 0-.507-.24-.88-.72-1.12-.453-.267-1.066-.467-1.84-.6a89.852 89.852 0 00-2.56-.4 35.815 35.815 0 01-2.76-.52 9.93 9.93 0 01-2.56-1.04 5.4 5.4 0 01-1.88-1.84c-.453-.773-.68-1.773-.68-3 0-1.36.387-2.56 1.16-3.6.8-1.04 1.947-1.853 3.44-2.44 1.494-.613 3.28-.92 5.36-.92 1.467 0 2.96.16 4.48.48 1.52.32 2.787.787 3.8 1.4l-2.08 4.44c-1.04-.613-2.093-1.027-3.16-1.24-1.04-.24-2.053-.36-3.04-.36-1.386 0-2.4.187-3.04.56-.64.373-.96.853-.96 1.44 0 .533.227.933.68 1.2.48.267 1.107.48 1.88.64.774.16 1.614.307 2.52.44.934.107 1.867.28 2.8.52.934.24 1.774.587 2.52 1.04a5.062 5.062 0 011.88 1.8c.48.747.72 1.733.72 2.96 0 1.333-.4 2.52-1.2 3.56-.8 1.013-1.96 1.813-3.48 2.4-1.493.587-3.32.88-5.48.88zm24.69 0c-2.453 0-4.613-.48-6.48-1.44-1.84-.96-3.266-2.267-4.28-3.92-1.013-1.68-1.52-3.587-1.52-5.72 0-2.16.494-4.067 1.48-5.72a10.594 10.594 0 014.12-3.92c1.734-.96 3.694-1.44 5.88-1.44 2.107 0 4 .453 5.68 1.36 1.707.88 3.054 2.16 4.04 3.84.987 1.653 1.48 3.64 1.48 5.96 0 .24-.013.52-.04.84-.026.293-.053.573-.08.84h-17.48v-3.64h14.2l-2.4 1.08c0-1.12-.226-2.093-.68-2.92a4.822 4.822 0 00-1.88-1.92c-.8-.48-1.733-.72-2.8-.72-1.066 0-2.013.24-2.84.72-.8.453-1.426 1.107-1.88 1.96-.453.827-.68 1.813-.68 2.96v.96c0 1.173.254 2.213.76 3.12a5.42 5.42 0 002.2 2.04c.96.453 2.08.68 3.36.68 1.147 0 2.147-.173 3-.52a7.299 7.299 0 002.4-1.56l3.32 3.6c-.986 1.12-2.226 1.987-3.72 2.6-1.493.587-3.213.88-5.16.88zm14.995-.32V2h13.68c3.52 0 6.16.667 7.92 2 1.786 1.333 2.68 3.093 2.68 5.28 0 1.467-.36 2.747-1.08 3.84-.72 1.067-1.707 1.893-2.96 2.48-1.254.587-2.694.88-4.32.88l.76-1.64c1.76 0 3.32.293 4.68.88 1.36.56 2.413 1.4 3.16 2.52.773 1.12 1.16 2.493 1.16 4.12 0 2.4-.947 4.28-2.84 5.64-1.894 1.333-4.68 2-8.36 2h-14.48zm6.44-4.88h7.56c1.68 0 2.946-.267 3.8-.8.88-.56 1.32-1.44 1.32-2.64 0-1.173-.44-2.04-1.32-2.6-.854-.587-2.12-.88-3.8-.88h-8.04v-4.72h6.92c1.573 0 2.773-.267 3.6-.8.853-.56 1.28-1.4 1.28-2.52 0-1.093-.427-1.907-1.28-2.44-.827-.56-2.027-.84-3.6-.84h-6.44v18.24zm33.946 5.2c-2.294 0-4.334-.48-6.12-1.44-1.76-.96-3.16-2.267-4.2-3.92-1.014-1.68-1.52-3.587-1.52-5.72 0-2.16.506-4.067 1.52-5.72a10.802 10.802 0 014.2-3.92c1.786-.96 3.826-1.44 6.12-1.44 2.266 0 4.293.48 6.08 1.44 1.786.933 3.186 2.227 4.2 3.88 1.013 1.653 1.52 3.573 1.52 5.76 0 2.133-.507 4.04-1.52 5.72-1.014 1.653-2.414 2.96-4.2 3.92-1.787.96-3.814 1.44-6.08 1.44zm0-5.12c1.04 0 1.973-.24 2.8-.72.826-.48 1.48-1.16 1.96-2.04.48-.907.72-1.973.72-3.2 0-1.253-.24-2.32-.72-3.2-.48-.88-1.134-1.56-1.96-2.04-.827-.48-1.76-.72-2.8-.72-1.04 0-1.974.24-2.8.72-.827.48-1.494 1.16-2 2.04-.48.88-.72 1.947-.72 3.2 0 1.227.24 2.293.72 3.2.506.88 1.173 1.56 2 2.04.826.48 1.76.72 2.8.72zm26.21 5.12c-2.293 0-4.333-.48-6.12-1.44-1.76-.96-3.16-2.267-4.2-3.92-1.013-1.68-1.52-3.587-1.52-5.72 0-2.16.507-4.067 1.52-5.72a10.802 10.802 0 014.2-3.92c1.787-.96 3.827-1.44 6.12-1.44 2.267 0 4.294.48 6.08 1.44 1.787.933 3.187 2.227 4.2 3.88 1.014 1.653 1.52 3.573 1.52 5.76 0 2.133-.506 4.04-1.52 5.72-1.013 1.653-2.413 2.96-4.2 3.92-1.786.96-3.813 1.44-6.08 1.44zm0-5.12c1.04 0 1.974-.24 2.8-.72.827-.48 1.48-1.16 1.96-2.04.48-.907.72-1.973.72-3.2 0-1.253-.24-2.32-.72-3.2-.48-.88-1.133-1.56-1.96-2.04-.826-.48-1.76-.72-2.8-.72-1.04 0-1.973.24-2.8.72-.826.48-1.493 1.16-2 2.04-.48.88-.72 1.947-.72 3.2 0 1.227.24 2.293.72 3.2.507.88 1.174 1.56 2 2.04.827.48 1.76.72 2.8.72zm21.131.4l.16-7.6 10.04-9.52h7.44l-9.64 9.8-3.24 2.64-4.76 4.68zm-5.16 4.4V.32h6.24V30h-6.24zm16.04 0l-7.28-9.04 3.92-4.84L254.464 30h-7.56z" fill="#12263A"/></svg>