<svg width="255" height="31" viewBox="0 0 255 31" fill="none" xmlns="http://www.w3.org/2000/svg">
<path d="M15.72 30.48C13.56 30.48 11.5467 30.1333 9.68 29.44C7.84 28.72 6.24 27.7067 4.88 26.4C3.52 25.0933 2.45333 23.56 1.68 21.8C0.933333 20.04 0.56 18.1067 0.56 16C0.56 13.8933 0.933333 11.96 1.68 10.2C2.45333 8.44 3.52 6.90667 4.88 5.6C6.26667 4.29333 7.88 3.29333 9.72 2.6C11.56 1.88 13.5733 1.52 15.76 1.52C18.1867 1.52 20.3733 1.94667 22.32 2.8C24.2933 3.62667 25.9467 4.85333 27.28 6.48L23.12 10.32C22.16 9.22667 21.0933 8.41333 19.92 7.88C18.7467 7.32 17.4667 7.04 16.08 7.04C14.7733 7.04 13.5733 7.25333 12.48 7.68C11.3867 8.10666 10.44 8.72 9.64 9.52C8.84 10.32 8.21333 11.2667 7.76 12.36C7.33333 13.4533 7.12 14.6667 7.12 16C7.12 17.3333 7.33333 18.5467 7.76 19.64C8.21333 20.7333 8.84 21.68 9.64 22.48C10.44 23.28 11.3867 23.8933 12.48 24.32C13.5733 24.7467 14.7733 24.96 16.08 24.96C17.4667 24.96 18.7467 24.6933 19.92 24.16C21.0933 23.6 22.16 22.76 23.12 21.64L27.28 25.48C25.9467 27.1067 24.2933 28.3467 22.32 29.2C20.3733 30.0533 18.1733 30.48 15.72 30.48ZM40.7138 30.32C38.4204 30.32 36.3804 29.84 34.5938 28.88C32.8338 27.92 31.4338 26.6133 30.3938 24.96C29.3804 23.28 28.8738 21.3733 28.8738 19.24C28.8738 17.08 29.3804 15.1733 30.3938 13.52C31.4338 11.84 32.8338 10.5333 34.5938 9.6C36.3804 8.64 38.4204 8.16 40.7138 8.16C42.9804 8.16 45.0071 8.64 46.7938 9.6C48.5804 10.5333 49.9804 11.8267 50.9938 13.48C52.0071 15.1333 52.5138 17.0533 52.5138 19.24C52.5138 21.3733 52.0071 23.28 50.9938 24.96C49.9804 26.6133 48.5804 27.92 46.7938 28.88C45.0071 29.84 42.9804 30.32 40.7138 30.32ZM40.7138 25.2C41.7538 25.2 42.6871 24.96 43.5138 24.48C44.3404 24 44.9938 23.32 45.4738 22.44C45.9538 21.5333 46.1938 20.4667 46.1938 19.24C46.1938 17.9867 45.9538 16.92 45.4738 16.04C44.9938 15.16 44.3404 14.48 43.5138 14C42.6871 13.52 41.7538 13.28 40.7138 13.28C39.6738 13.28 38.7404 13.52 37.9138 14C37.0871 14.48 36.4204 15.16 35.9138 16.04C35.4338 16.92 35.1938 17.9867 35.1938 19.24C35.1938 20.4667 35.4338 21.5333 35.9138 22.44C36.4204 23.32 37.0871 24 37.9138 24.48C38.7404 24.96 39.6738 25.2 40.7138 25.2ZM65.7647 30.32C63.978 30.32 62.378 29.9733 60.9647 29.28C59.578 28.5867 58.498 27.5333 57.7247 26.12C56.9514 24.68 56.5647 22.8533 56.5647 20.64V8.48H62.8047V19.72C62.8047 21.5067 63.178 22.8267 63.9247 23.68C64.698 24.5067 65.778 24.92 67.1647 24.92C68.1247 24.92 68.978 24.72 69.7247 24.32C70.4714 23.8933 71.058 23.2533 71.4847 22.4C71.9114 21.52 72.1247 20.4267 72.1247 19.12V8.48H78.3647V30H72.4447V24.08L73.5247 25.8C72.8047 27.2933 71.738 28.4267 70.3247 29.2C68.938 29.9467 67.418 30.32 65.7647 30.32ZM84.1456 30V8.48H90.1056V14.56L89.2656 12.8C89.9056 11.28 90.9323 10.1333 92.3456 9.36C93.759 8.56 95.479 8.16 97.5056 8.16V13.92C97.239 13.8933 96.999 13.88 96.7856 13.88C96.5723 13.8533 96.3456 13.84 96.1056 13.84C94.399 13.84 93.0123 14.3333 91.9456 15.32C90.9056 16.28 90.3856 17.7867 90.3856 19.84V30H84.1456ZM108.612 30.32C106.772 30.32 104.999 30.1067 103.292 29.68C101.612 29.2267 100.279 28.6667 99.2922 28L101.372 23.52C102.359 24.1333 103.519 24.64 104.852 25.04C106.212 25.4133 107.546 25.6 108.852 25.6C110.292 25.6 111.306 25.4267 111.892 25.08C112.506 24.7333 112.812 24.2533 112.812 23.64C112.812 23.1333 112.572 22.76 112.092 22.52C111.639 22.2533 111.026 22.0533 110.252 21.92C109.479 21.7867 108.626 21.6533 107.692 21.52C106.786 21.3867 105.866 21.2133 104.932 21C103.999 20.76 103.146 20.4133 102.372 19.96C101.599 19.5067 100.972 18.8933 100.492 18.12C100.039 17.3467 99.8122 16.3467 99.8122 15.12C99.8122 13.76 100.199 12.56 100.972 11.52C101.772 10.48 102.919 9.66667 104.412 9.08C105.906 8.46667 107.692 8.16 109.772 8.16C111.239 8.16 112.732 8.32 114.252 8.64C115.772 8.96 117.039 9.42667 118.052 10.04L115.972 14.48C114.932 13.8667 113.879 13.4533 112.812 13.24C111.772 13 110.759 12.88 109.772 12.88C108.386 12.88 107.372 13.0667 106.732 13.44C106.092 13.8133 105.772 14.2933 105.772 14.88C105.772 15.4133 105.999 15.8133 106.452 16.08C106.932 16.3467 107.559 16.56 108.332 16.72C109.106 16.88 109.946 17.0267 110.852 17.16C111.786 17.2667 112.719 17.44 113.652 17.68C114.586 17.92 115.426 18.2667 116.172 18.72C116.946 19.1467 117.572 19.7467 118.052 20.52C118.532 21.2667 118.772 22.2533 118.772 23.48C118.772 24.8133 118.372 26 117.572 27.04C116.772 28.0533 115.612 28.8533 114.092 29.44C112.599 30.0267 110.772 30.32 108.612 30.32ZM133.302 30.32C130.849 30.32 128.689 29.84 126.822 28.88C124.982 27.92 123.556 26.6133 122.542 24.96C121.529 23.28 121.022 21.3733 121.022 19.24C121.022 17.08 121.516 15.1733 122.502 13.52C123.516 11.84 124.889 10.5333 126.622 9.6C128.356 8.64 130.316 8.16 132.502 8.16C134.609 8.16 136.502 8.61333 138.182 9.52C139.889 10.4 141.236 11.68 142.222 13.36C143.209 15.0133 143.702 17 143.702 19.32C143.702 19.56 143.689 19.84 143.662 20.16C143.636 20.4533 143.609 20.7333 143.582 21H126.102V17.36H140.302L137.902 18.44C137.902 17.32 137.676 16.3467 137.222 15.52C136.769 14.6933 136.142 14.0533 135.342 13.6C134.542 13.12 133.609 12.88 132.542 12.88C131.476 12.88 130.529 13.12 129.702 13.6C128.902 14.0533 128.276 14.7067 127.822 15.56C127.369 16.3867 127.142 17.3733 127.142 18.52V19.48C127.142 20.6533 127.396 21.6933 127.902 22.6C128.436 23.48 129.169 24.16 130.102 24.64C131.062 25.0933 132.182 25.32 133.462 25.32C134.609 25.32 135.609 25.1467 136.462 24.8C137.342 24.4533 138.142 23.9333 138.862 23.24L142.182 26.84C141.196 27.96 139.956 28.8267 138.462 29.44C136.969 30.0267 135.249 30.32 133.302 30.32ZM148.297 30V2H161.977C165.497 2 168.137 2.66666 169.897 4C171.683 5.33333 172.577 7.09333 172.577 9.28C172.577 10.7467 172.217 12.0267 171.497 13.12C170.777 14.1867 169.79 15.0133 168.537 15.6C167.283 16.1867 165.843 16.48 164.217 16.48L164.977 14.84C166.737 14.84 168.297 15.1333 169.657 15.72C171.017 16.28 172.07 17.12 172.817 18.24C173.59 19.36 173.977 20.7333 173.977 22.36C173.977 24.76 173.03 26.64 171.137 28C169.243 29.3333 166.457 30 162.777 30H148.297ZM154.737 25.12H162.297C163.977 25.12 165.243 24.8533 166.097 24.32C166.977 23.76 167.417 22.88 167.417 21.68C167.417 20.5067 166.977 19.64 166.097 19.08C165.243 18.4933 163.977 18.2 162.297 18.2H154.257V13.48H161.177C162.75 13.48 163.95 13.2133 164.777 12.68C165.63 12.12 166.057 11.28 166.057 10.16C166.057 9.06667 165.63 8.25333 164.777 7.72C163.95 7.16 162.75 6.88 161.177 6.88H154.737V25.12ZM188.683 30.32C186.389 30.32 184.349 29.84 182.563 28.88C180.803 27.92 179.403 26.6133 178.363 24.96C177.349 23.28 176.843 21.3733 176.843 19.24C176.843 17.08 177.349 15.1733 178.363 13.52C179.403 11.84 180.803 10.5333 182.563 9.6C184.349 8.64 186.389 8.16 188.683 8.16C190.949 8.16 192.976 8.64 194.763 9.6C196.549 10.5333 197.949 11.8267 198.963 13.48C199.976 15.1333 200.483 17.0533 200.483 19.24C200.483 21.3733 199.976 23.28 198.963 24.96C197.949 26.6133 196.549 27.92 194.763 28.88C192.976 29.84 190.949 30.32 188.683 30.32ZM188.683 25.2C189.723 25.2 190.656 24.96 191.483 24.48C192.309 24 192.963 23.32 193.443 22.44C193.923 21.5333 194.163 20.4667 194.163 19.24C194.163 17.9867 193.923 16.92 193.443 16.04C192.963 15.16 192.309 14.48 191.483 14C190.656 13.52 189.723 13.28 188.683 13.28C187.643 13.28 186.709 13.52 185.883 14C185.056 14.48 184.389 15.16 183.883 16.04C183.403 16.92 183.163 17.9867 183.163 19.24C183.163 20.4667 183.403 21.5333 183.883 22.44C184.389 23.32 185.056 24 185.883 24.48C186.709 24.96 187.643 25.2 188.683 25.2ZM214.893 30.32C212.6 30.32 210.56 29.84 208.773 28.88C207.013 27.92 205.613 26.6133 204.573 24.96C203.56 23.28 203.053 21.3733 203.053 19.24C203.053 17.08 203.56 15.1733 204.573 13.52C205.613 11.84 207.013 10.5333 208.773 9.6C210.56 8.64 212.6 8.16 214.893 8.16C217.16 8.16 219.187 8.64 220.973 9.6C222.76 10.5333 224.16 11.8267 225.173 13.48C226.187 15.1333 226.693 17.0533 226.693 19.24C226.693 21.3733 226.187 23.28 225.173 24.96C224.16 26.6133 222.76 27.92 220.973 28.88C219.187 29.84 217.16 30.32 214.893 30.32ZM214.893 25.2C215.933 25.2 216.867 24.96 217.693 24.48C218.52 24 219.173 23.32 219.653 22.44C220.133 21.5333 220.373 20.4667 220.373 19.24C220.373 17.9867 220.133 16.92 219.653 16.04C219.173 15.16 218.52 14.48 217.693 14C216.867 13.52 215.933 13.28 214.893 13.28C213.853 13.28 212.92 13.52 212.093 14C211.267 14.48 210.6 15.16 210.093 16.04C209.613 16.92 209.373 17.9867 209.373 19.24C209.373 20.4667 209.613 21.5333 210.093 22.44C210.6 23.32 211.267 24 212.093 24.48C212.92 24.96 213.853 25.2 214.893 25.2ZM236.024 25.6L236.184 18L246.224 8.48H253.664L244.024 18.28L240.784 20.92L236.024 25.6ZM230.864 30V0.319998H237.104V30H230.864ZM246.904 30L239.624 20.96L243.544 16.12L254.464 30H246.904Z" fill="#12263A"/>
</svg>
